<svg width="32" height="32" viewBox="0 0 32 32" fill="none" xmlns="http://www.w3.org/2000/svg">
  <defs>
    <linearGradient id="gradient" x1="0%" y1="0%" x2="100%" y2="100%">
      <stop offset="0%" style="stop-color:#2563eb;stop-opacity:1" />
      <stop offset="100%" style="stop-color:#16a34a;stop-opacity:1" />
    </linearGradient>
  </defs>
  <rect width="32" height="32" rx="6" fill="url(#gradient)"/>
  <path d="M8 10a2 2 0 0 1 2-2h12a2 2 0 0 1 2 2v12a2 2 0 0 1-2 2H10a2 2 0 0 1-2-2V10z" fill="white"/>
  <circle cx="13.5" cy="13.5" r="1.5" fill="url(#gradient)"/>
  <path d="m9 20 2.5-2.5L14 20l4-4 4 4v1a1 1 0 0 1-1 1H10a1 1 0 0 1-1-1v-1z" fill="url(#gradient)"/>
</svg>